<?xml version="1.0" encoding="UTF-8"?>
<svg id="Layer_2" data-name="Layer 2" xmlns="http://www.w3.org/2000/svg" viewBox="0 0 24.92 19.18">
  <defs>
    <style>
      .cls-1 {
        fill: #4c2014;
      }
    </style>
  </defs>
  <g id="Layer_1-2" data-name="Layer 1">
    <g>
      <path class="cls-1" d="M4.27.02c-.81.1-1.56.38-2.22.85l-.03.13,7.7,7.75c1.58,1.33,3.87,1.35,5.46.02L22.91,1c0-.08-.01-.1-.06-.16-.07-.09-.62-.37-.75-.43-.5-.22-1.04-.35-1.58-.41L4.27.02ZM.71,2.43c-.28.07-.63,1.59-.63,1.9.2,3.43-.26,7.15,0,10.55.16,2.06,1.79,3.83,3.81,4.21,5.71.11,11.47.13,17.18,0,2.05-.41,3.6-2.17,3.77-4.25-.18-3.43.23-7.1,0-10.5-.03-.47-.22-1.25-.44-1.66-.08-.14-.16-.34-.35-.2l-7.8,7.75c-2.25,1.79-5.34,1.8-7.59,0L.86,2.47s-.09-.06-.15-.05Z"/>
      <path class="cls-1" d="M.71,2.43c.06-.02.11,0,.15.05l7.8,7.75c2.25,1.8,5.34,1.79,7.59,0l7.8-7.75c.19-.14.27.06.35.2.22.41.41,1.19.44,1.66.23,3.4-.18,7.07,0,10.5-.16,2.08-1.72,3.84-3.77,4.25-5.71.14-11.47.12-17.18,0-2.02-.38-3.65-2.15-3.81-4.21-.26-3.4.2-7.12,0-10.55,0-.31.35-1.83.63-1.9Z"/>
      <path class="cls-1" d="M4.27.02l16.24-.02c.55.06,1.08.18,1.58.41.14.06.68.34.75.43.05.06.07.08.06.16l-7.73,7.78c-1.59,1.33-3.89,1.31-5.46-.02L2.02,1l.03-.13C2.71.4,3.46.12,4.27.02Z"/>
    </g>
  </g>
</svg>